<svg width="36" height="36" viewBox="0 0 36 36" fill="none" xmlns="http://www.w3.org/2000/svg">
<path d="M22.5 6.37501V29.619C22.5 31.2375 20.589 32.0955 19.38 31.02L12.642 25.029C12.4361 24.8463 12.1703 24.7454 11.895 24.7455H6.375C5.93179 24.7455 5.49292 24.6582 5.08344 24.4886C4.67397 24.319 4.30191 24.0704 3.98851 23.757C3.67512 23.4436 3.42652 23.0715 3.25691 22.6621C3.0873 22.2526 3 21.8137 3 21.3705V14.6235C3.0004 13.7287 3.35615 12.8706 3.98904 12.238C4.62194 11.6054 5.48015 11.25 6.375 11.25H11.895C12.1705 11.2497 12.4363 11.1483 12.642 10.965L19.3785 4.97551C20.589 3.90001 22.5 4.75801 22.5 6.37501ZM28.488 8.84701C28.7277 8.66941 29.0281 8.5943 29.3232 8.63818C29.6183 8.68206 29.8839 8.84135 30.0615 9.08101C31.9746 11.6613 33.005 14.7894 33 18.0015C33.0042 21.2132 31.9732 24.3408 30.06 26.9205C29.8805 27.1551 29.616 27.3097 29.3235 27.3509C29.031 27.3921 28.734 27.3167 28.4967 27.1408C28.2593 26.9649 28.1007 26.7028 28.055 26.4109C28.0093 26.1191 28.0803 25.821 28.2525 25.581C29.8785 23.3889 30.7544 20.7309 30.75 18.0015C30.7547 15.2716 29.8788 12.6131 28.2525 10.4205C28.1644 10.3017 28.1006 10.1666 28.0648 10.0231C28.0289 9.87963 28.0217 9.73046 28.0436 9.58417C28.0655 9.43788 28.116 9.29734 28.1923 9.17059C28.2685 9.04384 28.369 8.93487 28.488 8.84701ZM25.7145 12.555C25.8444 12.4846 25.9869 12.4404 26.1339 12.425C26.2809 12.4097 26.4294 12.4234 26.5711 12.4655C26.7128 12.5075 26.8447 12.5771 26.9595 12.6702C27.0743 12.7633 27.1696 12.8781 27.24 13.008C28.044 14.493 28.5 16.1955 28.5 18.0015C28.5025 19.7445 28.0694 21.4605 27.24 22.9935C27.1697 23.1235 27.0744 23.2384 26.9597 23.3316C26.845 23.4248 26.713 23.4945 26.5714 23.5367C26.4297 23.5789 26.2811 23.5928 26.1341 23.5776C25.9871 23.5624 25.8445 23.5183 25.7145 23.448C25.5845 23.3777 25.4696 23.2824 25.3764 23.1677C25.2832 23.053 25.2135 22.921 25.1713 22.7794C25.1291 22.6377 25.1152 22.4892 25.1304 22.3421C25.1457 22.1951 25.1897 22.0525 25.26 21.9225C25.9114 20.7183 26.2517 19.3706 26.25 18.0015C26.25 16.5795 25.89 15.2445 25.26 14.079C25.1183 13.8166 25.0866 13.5087 25.1718 13.2229C25.257 12.9372 25.4522 12.6969 25.7145 12.555Z" fill="black"/>
</svg>
