<svg width="36" height="36" viewBox="0 0 36 36" fill="none" xmlns="http://www.w3.org/2000/svg">
<rect width="36" height="36" rx="18" fill="black"/>
<path d="M17.22 26.08C17.0333 26.08 16.94 25.9933 16.94 25.82V13.98L15.46 15.26C15.3933 15.3133 15.3133 15.3467 15.22 15.36C15.14 15.3733 15.0733 15.3533 15.02 15.3L14.12 14.22C14.08 14.1667 14.06 14.1067 14.06 14.04C14.0733 13.96 14.1133 13.8867 14.18 13.82L17.24 11C17.2667 10.9733 17.3133 10.9467 17.38 10.92C17.4467 10.8933 17.5 10.88 17.54 10.88H18.6C18.8267 10.88 18.96 10.9067 19 10.96C19.0533 11 19.08 11.1533 19.08 11.42V25.82C19.08 25.9933 18.9933 26.08 18.82 26.08H17.22Z" fill="white"/>
</svg>
