<svg width="32" height="32" viewBox="0 0 32 32" fill="none" xmlns="http://www.w3.org/2000/svg">
<g clip-path="url(#clip0_884_1840)">
<path d="M4 10V30C4 31.1 4.9 32 6 32H24C25.1 32 26 31.1 26 30V10H4ZM10 28H8V14H10V28ZM14 28H12V14H14V28ZM18 28H16V14H18V28ZM22 28H20V14H22V28ZM26.5 4H20V1.5C19.9984 1.10266 19.8399 0.722048 19.5589 0.441085C19.278 0.160122 18.8973 0.00157989 18.5 0L11.5 0C11.1027 0.00157989 10.722 0.160122 10.4411 0.441085C10.1601 0.722048 10.0016 1.10266 10 1.5V4H3.5C3.1025 4.00106 2.72158 4.15943 2.44051 4.44051C2.15943 4.72158 2.00106 5.1025 2 5.5V8H28V5.5C27.9989 5.1025 27.8406 4.72158 27.5595 4.44051C27.2784 4.15943 26.8975 4.00106 26.5 4ZM18 4H12V2.026H18V4Z" fill="white"/>
</g>
<defs>
<clipPath id="clip0_884_1840">
<rect width="32" height="32" fill="white"/>
</clipPath>
</defs>
</svg>
