<svg width="36" height="36" viewBox="0 0 36 36" fill="none" xmlns="http://www.w3.org/2000/svg">
<rect width="36" height="36" rx="18" fill="black"/>
<path d="M13.02 26.1C12.7667 26.1 12.64 26.0133 12.64 25.84V24.7C12.64 24.5933 12.6667 24.4867 12.72 24.38C12.7867 24.2733 12.86 24.1667 12.94 24.06L15.98 20.46C17.0867 19.14 17.9067 18.04 18.44 17.16C18.9733 16.28 19.24 15.56 19.24 15C19.24 14.36 19.04 13.8333 18.64 13.42C18.2533 13.0067 17.7733 12.8 17.2 12.8C16.6533 12.8 16.12 12.88 15.6 13.04C15.0933 13.1867 14.54 13.4333 13.94 13.78C13.8333 13.8467 13.7267 13.88 13.62 13.88C13.5133 13.8667 13.4467 13.8 13.42 13.68L13.14 12.16C13.1133 12.0933 13.12 12.0267 13.16 11.96C13.2 11.8933 13.2867 11.82 13.42 11.74C13.9267 11.4733 14.5067 11.2333 15.16 11.02C15.8133 10.8067 16.4533 10.7 17.08 10.7C17.72 10.7 18.3067 10.7933 18.84 10.98C19.3867 11.1533 19.8533 11.42 20.24 11.78C20.64 12.1267 20.9533 12.5667 21.18 13.1C21.4067 13.6333 21.52 14.2467 21.52 14.94C21.52 15.54 21.3867 16.1533 21.12 16.78C20.8533 17.3933 20.52 18 20.12 18.6C19.72 19.1867 19.2933 19.7533 18.84 20.3C18.3867 20.8333 17.9733 21.32 17.6 21.76C17.3067 22.12 16.9933 22.5 16.66 22.9C16.34 23.2867 16.0133 23.6667 15.68 24.04H21.54C21.7267 24.04 21.82 24.1467 21.82 24.36V25.76C21.82 25.9867 21.7267 26.1 21.54 26.1H13.02Z" fill="white"/>
</svg>
