<svg width="288" height="33" viewBox="0 0 288 33" fill="none" xmlns="http://www.w3.org/2000/svg">
<path d="M4.2 7.05C2.2 7.05 0.950001 5.8 0.950001 3.55C0.950001 1.4 2.15 0.049997 4.2 0.049997C6.1 0.049997 7.4 1.3 7.4 3.55C7.4 5.75 6.15 7.05 4.2 7.05ZM4.2 32.05C2.2 32.05 0.950001 30.8 0.950001 28.55C0.950001 26.4 2.15 25.05 4.2 25.05C6.1 25.05 7.4 26.3 7.4 28.55C7.4 30.75 6.15 32.05 4.2 32.05ZM39.2098 7.05C37.2098 7.05 35.9598 5.8 35.9598 3.55C35.9598 1.4 37.1598 0.049997 39.2098 0.049997C41.1098 0.049997 42.4098 1.3 42.4098 3.55C42.4098 5.75 41.1598 7.05 39.2098 7.05ZM25.8598 19.55C23.8598 19.55 22.6098 18.3 22.6098 16.05C22.6098 13.9 23.8098 12.55 25.8598 12.55C27.7598 12.55 29.0598 13.8 29.0598 16.05C29.0598 18.25 27.8098 19.55 25.8598 19.55ZM25.8598 32.05C23.8598 32.05 22.6098 30.8 22.6098 28.55C22.6098 26.4 23.8098 25.05 25.8598 25.05C27.7598 25.05 29.0598 26.3 29.0598 28.55C29.0598 30.75 27.8098 32.05 25.8598 32.05ZM60.8695 19.55C58.8695 19.55 57.6195 18.3 57.6195 16.05C57.6195 13.9 58.8195 12.55 60.8695 12.55C62.7695 12.55 64.0695 13.8 64.0695 16.05C64.0695 18.25 62.8195 19.55 60.8695 19.55ZM74.2195 32.05C72.2195 32.05 70.9695 30.8 70.9695 28.55C70.9695 26.4 72.1695 25.05 74.2195 25.05C76.1195 25.05 77.4195 26.3 77.4195 28.55C77.4195 30.75 76.1695 32.05 74.2195 32.05ZM109.229 19.55C107.229 19.55 105.979 18.3 105.979 16.05C105.979 13.9 107.179 12.55 109.229 12.55C111.129 12.55 112.429 13.8 112.429 16.05C112.429 18.25 111.179 19.55 109.229 19.55ZM109.229 32.05C107.229 32.05 105.979 30.8 105.979 28.55C105.979 26.4 107.179 25.05 109.229 25.05C111.129 25.05 112.429 26.3 112.429 28.55C112.429 30.75 111.179 32.05 109.229 32.05ZM130.889 7.05C128.889 7.05 127.639 5.8 127.639 3.55C127.639 1.4 128.839 0.049997 130.889 0.049997C132.789 0.049997 134.089 1.3 134.089 3.55C134.089 5.75 132.839 7.05 130.889 7.05ZM130.889 19.55C128.889 19.55 127.639 18.3 127.639 16.05C127.639 13.9 128.839 12.55 130.889 12.55C132.789 12.55 134.089 13.8 134.089 16.05C134.089 18.25 132.839 19.55 130.889 19.55ZM144.239 32.05C142.239 32.05 140.989 30.8 140.989 28.55C140.989 26.4 142.189 25.05 144.239 25.05C146.139 25.05 147.439 26.3 147.439 28.55C147.439 30.75 146.189 32.05 144.239 32.05ZM179.249 7.05C177.249 7.05 175.999 5.8 175.999 3.55C175.999 1.4 177.199 0.049997 179.249 0.049997C181.149 0.049997 182.449 1.3 182.449 3.55C182.449 5.75 181.199 7.05 179.249 7.05ZM179.249 32.05C177.249 32.05 175.999 30.8 175.999 28.55C175.999 26.4 177.199 25.05 179.249 25.05C181.149 25.05 182.449 26.3 182.449 28.55C182.449 30.75 181.199 32.05 179.249 32.05ZM214.259 7.05C212.259 7.05 211.009 5.8 211.009 3.55C211.009 1.4 212.209 0.049997 214.259 0.049997C216.159 0.049997 217.459 1.3 217.459 3.55C217.459 5.75 216.209 7.05 214.259 7.05ZM200.909 19.55C198.909 19.55 197.659 18.3 197.659 16.05C197.659 13.9 198.859 12.55 200.909 12.55C202.809 12.55 204.109 13.8 204.109 16.05C204.109 18.25 202.859 19.55 200.909 19.55ZM200.909 32.05C198.909 32.05 197.659 30.8 197.659 28.55C197.659 26.4 198.859 25.05 200.909 25.05C202.809 25.05 204.109 26.3 204.109 28.55C204.109 30.75 202.859 32.05 200.909 32.05ZM235.918 19.55C233.918 19.55 232.668 18.3 232.668 16.05C232.668 13.9 233.868 12.55 235.918 12.55C237.818 12.55 239.118 13.8 239.118 16.05C239.118 18.25 237.868 19.55 235.918 19.55ZM249.268 32.05C247.268 32.05 246.018 30.8 246.018 28.55C246.018 26.4 247.218 25.05 249.268 25.05C251.168 25.05 252.468 26.3 252.468 28.55C252.468 30.75 251.218 32.05 249.268 32.05ZM284.278 7.05C282.278 7.05 281.028 5.8 281.028 3.55C281.028 1.4 282.228 0.049997 284.278 0.049997C286.178 0.049997 287.478 1.3 287.478 3.55C287.478 5.75 286.228 7.05 284.278 7.05ZM284.278 32.05C282.278 32.05 281.028 30.8 281.028 28.55C281.028 26.4 282.228 25.05 284.278 25.05C286.178 25.05 287.478 26.3 287.478 28.55C287.478 30.75 286.228 32.05 284.278 32.05Z" fill="white"/>
</svg>
